<?xml version="1.0" encoding="utf-8"?>
<!-- Generator: Adobe Illustrator 19.0.0, SVG Export Plug-In . SVG Version: 6.00 Build 0)  -->
<svg version="1.1" id="Capa_1" xmlns="http://www.w3.org/2000/svg" xmlns:xlink="http://www.w3.org/1999/xlink" x="0px" y="0px"
	 viewBox="0 0 494 141" style="enable-background:new 0 0 494 141;" xml:space="preserve">
<style type="text/css">
	.st0{fill:#FFFFFF;}
	.st1{clip-path:url(#SVGID_2_);fill:#FFFFFF;}
	.st2{clip-path:url(#SVGID_4_);fill:#FFFFFF;}
	.st3{clip-path:url(#XMLID_135_);fill:#FFFFFF;}
	.st4{clip-path:url(#XMLID_136_);fill:#FFFFFF;}
	.st5{clip-path:url(#XMLID_137_);fill:#FFFFFF;}
	.st6{clip-path:url(#XMLID_138_);fill:#FFFFFF;}
</style>
<g id="XMLID_1_">
	<g>
		<g>
			<path class="st0" d="M209.3,34.9c0,4.7-2.6,9.5-7.7,11.4c4.8,1.6,8.5,5.3,8.5,12.3c0,12.5-10,14.9-21,14.9
				c-6.9,0-13-0.5-18.1-1.5V21.9c4.1-0.8,10.8-1.6,17.3-1.6C198.1,20.3,209.3,22.2,209.3,34.9 M183,50.8v12.5
				c1.7,0.2,3.7,0.4,5.9,0.4c5.3,0,9.1-0.9,9.1-6.3c0-5.7-4.1-6.6-9.4-6.6H183z M188.6,41.8c5.1,0,8.9-0.9,8.9-6.1
				c0-5.2-3.6-5.8-9.3-5.8c-1.7,0-3.6,0.1-5.2,0.3v11.5H188.6z"/>
			<path class="st0" d="M216.8,60.5c0-7.2,3.2-11.5,11.4-12.9c3.9-0.7,7.5-0.8,11.3-0.9c0-3.6-1.9-4.9-6.1-4.9
				c-4.8,0-10.3,0.6-14.3,1.1l-0.9-8.6c4.1-0.7,10-1.6,15.9-1.6c9,0,16.6,2.6,16.6,13.1v16.1c0,2.8-0.1,5.1-0.3,7.8
				c-4.8,2.9-10.8,3.9-17.8,3.9C221.3,73.5,216.8,69.2,216.8,60.5 M239.5,54.2c-2.4,0.2-5.2,0.3-7.4,0.8c-2.8,0.7-4,1.7-4,5.4
				c0,3.4,2,4.3,5.5,4.3c1.8,0,3.8-0.1,5.7-0.8c0.2-1.6,0.2-3.6,0.2-5.3V54.2z"/>
			<path class="st0" d="M270.2,73h-11.4V44.3c0-2.8,0.1-5.1,0.3-7.8c4.8-2.8,11.1-3.9,17.6-3.9c14.7,0,16.4,6.3,16.4,15.2V73h-11.4
				V48.7c0-4.8-0.9-6.8-6.4-6.8c-1.8,0-3.7,0.3-4.9,0.8c-0.2,1.6-0.2,3.6-0.2,5.3V73z"/>
			<path class="st0" d="M329.1,71.8c-3.6,1-8.1,1.7-13.7,1.7C302,73.5,300,63.2,300,52.7c0-13,3.1-20.1,17.8-20.1
				c4.9,0,8.4,0.7,11.2,1.7l-0.9,8.4c-2.6-0.5-5-1.1-7.6-1.1c-8.1,0-9.1,2.6-9.1,11.1c0,8,0.4,11.5,9.2,11.5c2.6,0,4.8-0.5,7.4-1
				L329.1,71.8z"/>
			<path class="st0" d="M334.1,53c0-14.8,4.8-20.4,18-20.4c13.2,0,18,5.7,18,20.4c0,14.8-4.8,20.5-18,20.5
				C338.9,73.5,334.1,67.9,334.1,53 M358.6,53c0-8.7-1.3-11.1-6.5-11.1c-5.3,0-6.5,2.3-6.5,11.1c0,8.9,1.2,11.1,6.5,11.1
				C357.4,64.2,358.6,61.8,358.6,53"/>
			<path class="st0" d="M166.4,135.3l15.3-44.5c2.1-6,5-8.4,9.4-8.4c4.3,0,7.4,2.7,9.3,8.4l15,44.5h-13l-3.6-12h-16.4l-3.4,12H166.4
				z M196,113.8l-5.5-18.5l-5.3,18.5H196z"/>
			<path class="st0" d="M258,82.4v40.4c0,2.7,1.2,4.2,4.1,4.2c1.2,0,2.2-0.1,3.5-0.5l1.1,8.5c-2.4,0.4-5.3,0.8-7.7,0.8
				c-8.8,0-12.5-3.9-12.5-11.7V82.4H258z"/>
			<path class="st0" d="M269.5,122.7c0-7.2,3.2-11.6,11.4-13c3.9-0.6,7.6-0.8,11.4-0.9c0-3.6-1.8-5-6.1-5c-4.9,0-10.4,0.6-14.4,1.1
				l-0.9-8.7c4.1-0.7,10.1-1.6,16-1.6c9.1,0,16.7,2.6,16.7,13.2V124c0,2.8-0.1,5.2-0.3,7.9c-4.8,2.9-10.9,3.9-17.9,3.9
				C274,135.8,269.5,131.5,269.5,122.7 M292.3,116.4c-2.5,0.2-5.2,0.3-7.5,0.8c-2.8,0.7-4,1.7-4,5.4c0,3.4,2,4.3,5.6,4.3
				c1.8,0,3.9-0.1,5.7-0.8c0.2-1.6,0.2-3.6,0.2-5.4V116.4z M291.3,90.4h-8.7l5.9-10h11.4L291.3,90.4z"/>
			<path class="st0" d="M323.7,135.3h-11.4v-28.8c0-2.8,0.1-5.2,0.3-7.9c4.8-2.8,11.2-3.9,17.7-3.9c14.8,0,16.5,6.3,16.5,15.3v25.3
				h-11.5v-24.4c0-4.9-0.9-6.8-6.5-6.9c-1.8,0-3.7,0.3-5,0.8c-0.2,1.6-0.2,3.6-0.2,5.4V135.3z"/>
			<path class="st0" d="M382.3,85.6c0-4.1,1.5-5.7,6.2-5.7c4.6,0,6.2,1.6,6.2,5.7c0,4.1-1.5,5.7-6.2,5.7
				C383.9,91.4,382.3,89.8,382.3,85.6 M382.8,94.7h11.6v40.6h-11.6V94.7z"/>
			<path class="st0" d="M426.8,82.4h11.5V124c0,2.8-0.1,5.2-0.3,7.9c-4.5,2.8-10.9,3.9-16.5,3.9c-13.6,0-19.3-4.8-19.3-20.6
				c0-15.6,5.7-20.6,18.1-20.6c2,0,4.4,0.2,6.5,0.6V82.4z M422.4,103.9c-8.4,0-8.7,4.9-8.7,11.3c0,5.7,0.2,11.4,7.7,11.4
				c1.8,0,3.8-0.3,5.1-0.8c0.2-1.6,0.2-3.6,0.2-5.4v-16C425.5,104.1,423.8,103.9,422.4,103.9"/>
			<path class="st0" d="M445.6,122.7c0-7.2,3.2-11.6,11.4-13c4-0.6,7.6-0.8,11.4-0.9c0-3.6-1.9-5-6.1-5c-4.9,0-10.4,0.6-14.4,1.1
				l-0.9-8.7c4.1-0.7,10.1-1.6,16-1.6c9.1,0,16.7,2.6,16.7,13.2V124c0,2.8-0.1,5.2-0.3,7.9c-4.8,2.9-10.9,3.9-17.9,3.9
				C450.1,135.8,445.6,131.5,445.6,122.7 M468.4,116.4c-2.4,0.2-5.2,0.3-7.5,0.8c-2.9,0.7-4,1.7-4,5.4c0,3.4,2,4.3,5.6,4.3
				c1.8,0,3.9-0.1,5.7-0.8c0.2-1.6,0.2-3.6,0.2-5.4V116.4z"/>
			<path class="st0" d="M366.4,82.4v12.2h10v9.5h-10v18.6c0,2.7,1.2,4.2,4.1,4.2c1.2,0,2.4,0,3.7-0.2l0.9,8.2
				c-2.4,0.4-5.3,0.8-7.7,0.8c-8.7,0-12.5-3.9-12.5-11.7V82.4H366.4z"/>
			<path class="st0" d="M230.3,82.4v12.2h10v9.5h-10v18.6c0,2.7,1.2,4.2,4.1,4.2c1.2,0,2.4,0,3.7-0.2l0.9,8.2
				c-2.4,0.4-5.3,0.8-7.7,0.8c-8.8,0-12.5-3.9-12.5-11.7V82.4H230.3z"/>
		</g>
		<g>
			<defs>
				<path id="SVGID_1_" d="M13.2,20.1c-2.1,0-3.8,1.7-3.8,3.8v62.2c0,30.1,19.4,49.8,49.5,49.8h25.6c2.1,0,3.8-1.7,3.8-3.8v-30.6
					c0-2.1-1.7-3.8-3.8-3.8H68.1c-2.1,0-11.9-0.3-11.9-11.9V23.9c0-2.1-1.7-3.8-3.8-3.8H13.2z"/>
			</defs>
			<use xlink:href="#SVGID_1_"  style="overflow:visible;fill:#FFFFFF;"/>
			<clipPath id="SVGID_2_">
				<use xlink:href="#SVGID_1_"  style="overflow:visible;"/>
			</clipPath>

				<rect x="-0.8" y="13.7" transform="matrix(-0.9823 -0.1871 0.1871 -0.9823 82.2064 163.6431)" class="st1" width="99.2" height="128.5"/>
		</g>
		<g>
			<defs>
				<path id="SVGID_3_" d="M65.7,36.8c-2.1,0-3.8,1.7-3.8,3.8v35.1c0,2.1,1.7,3.8,3.8,3.8h18.7c2.1,0,9.5,0.3,9.5,11.9V132
					c0,2.1,1.7,3.8,3.8,3.8h39.2c2.1,0,3.8-1.7,3.8-3.8V86.5c0-30.1-19.4-49.8-49.5-49.8H65.7z"/>
			</defs>
			<use xlink:href="#SVGID_3_"  style="overflow:visible;fill:#FFFFFF;"/>
			<clipPath id="SVGID_4_">
				<use xlink:href="#SVGID_3_"  style="overflow:visible;"/>
			</clipPath>

				<rect x="45.4" y="25.2" transform="matrix(0.9173 0.3981 -0.3981 0.9173 42.7308 -33.1969)" class="st2" width="111.8" height="122.3"/>
		</g>
	</g>
	<g id="XMLID_3_">
		<g id="XMLID_10_">
			<path id="XMLID_39_" class="st0" d="M210.3,34.9c0,4.7-2.6,9.5-7.7,11.4c4.8,1.6,8.5,5.3,8.5,12.3c0,12.5-10,14.9-21,14.9
				c-6.9,0-13-0.5-18.1-1.5V21.9c4.1-0.8,10.8-1.6,17.3-1.6C199.1,20.3,210.3,22.2,210.3,34.9 M184,50.8v12.5
				c1.7,0.2,3.7,0.4,5.9,0.4c5.3,0,9.1-0.9,9.1-6.3c0-5.7-4.1-6.6-9.4-6.6H184z M189.6,41.8c5.1,0,8.9-0.9,8.9-6.1
				c0-5.2-3.6-5.8-9.3-5.8c-1.7,0-3.6,0.1-5.2,0.3v11.5H189.6z"/>
			<path id="XMLID_36_" class="st0" d="M217.8,60.5c0-7.2,3.2-11.5,11.4-12.9c3.9-0.7,7.5-0.8,11.3-0.9c0-3.6-1.9-4.9-6.1-4.9
				c-4.8,0-10.3,0.6-14.3,1.1l-0.9-8.6c4.1-0.7,10-1.6,15.9-1.6c9,0,16.6,2.6,16.6,13.1v16.1c0,2.8-0.1,5.1-0.3,7.8
				c-4.8,2.9-10.8,3.9-17.8,3.9C222.3,73.5,217.8,69.2,217.8,60.5 M240.5,54.2c-2.4,0.2-5.2,0.3-7.4,0.8c-2.8,0.7-4,1.7-4,5.4
				c0,3.4,2,4.3,5.5,4.3c1.8,0,3.8-0.1,5.7-0.8c0.2-1.6,0.2-3.6,0.2-5.3V54.2z"/>
			<path id="XMLID_35_" class="st0" d="M271.2,73h-11.4V44.3c0-2.8,0.1-5.1,0.3-7.8c4.8-2.8,11.1-3.9,17.6-3.9
				c14.7,0,16.4,6.3,16.4,15.2V73h-11.4V48.7c0-4.8-0.9-6.8-6.4-6.8c-1.8,0-3.7,0.3-4.9,0.8c-0.2,1.6-0.2,3.6-0.2,5.3V73z"/>
			<path id="XMLID_34_" class="st0" d="M330.1,71.8c-3.6,1-8.1,1.7-13.7,1.7C303,73.5,301,63.2,301,52.7c0-13,3.1-20.1,17.8-20.1
				c4.9,0,8.4,0.7,11.2,1.7l-0.9,8.4c-2.6-0.5-5-1.1-7.6-1.1c-8.1,0-9.1,2.6-9.1,11.1c0,8,0.4,11.5,9.2,11.5c2.6,0,4.8-0.5,7.4-1
				L330.1,71.8z"/>
			<path id="XMLID_31_" class="st0" d="M335.1,53c0-14.8,4.8-20.4,18-20.4c13.2,0,18,5.7,18,20.4c0,14.8-4.8,20.5-18,20.5
				C339.9,73.5,335.1,67.9,335.1,53 M359.6,53c0-8.7-1.3-11.1-6.5-11.1c-5.3,0-6.5,2.3-6.5,11.1c0,8.9,1.2,11.1,6.5,11.1
				C358.4,64.2,359.6,61.8,359.6,53"/>
			<path id="XMLID_28_" class="st0" d="M167.4,135.3l15.3-44.5c2.1-6,5-8.4,9.4-8.4c4.3,0,7.4,2.7,9.3,8.4l15,44.5h-13l-3.6-12
				h-16.4l-3.4,12H167.4z M197,113.8l-5.5-18.5l-5.3,18.5H197z"/>
			<path id="XMLID_27_" class="st0" d="M259,82.4v40.4c0,2.7,1.2,4.2,4.1,4.2c1.2,0,2.2-0.1,3.5-0.5l1.1,8.5
				c-2.4,0.4-5.3,0.8-7.7,0.8c-8.8,0-12.5-3.9-12.5-11.7V82.4H259z"/>
			<path id="XMLID_23_" class="st0" d="M270.5,122.7c0-7.2,3.2-11.6,11.4-13c3.9-0.6,7.6-0.8,11.4-0.9c0-3.6-1.8-5-6.1-5
				c-4.9,0-10.4,0.6-14.4,1.1l-0.9-8.7c4.1-0.7,10.1-1.6,16-1.6c9.1,0,16.7,2.6,16.7,13.2V124c0,2.8-0.1,5.2-0.3,7.9
				c-4.8,2.9-10.9,3.9-17.9,3.9C275,135.8,270.5,131.5,270.5,122.7 M293.3,116.4c-2.5,0.2-5.2,0.3-7.5,0.8c-2.8,0.7-4,1.7-4,5.4
				c0,3.4,2,4.3,5.6,4.3c1.8,0,3.9-0.1,5.7-0.8c0.2-1.6,0.2-3.6,0.2-5.4V116.4z M292.3,90.4h-8.7l5.9-10h11.4L292.3,90.4z"/>
			<path id="XMLID_22_" class="st0" d="M324.7,135.3h-11.4v-28.8c0-2.8,0.1-5.2,0.3-7.9c4.8-2.8,11.2-3.9,17.7-3.9
				c14.8,0,16.5,6.3,16.5,15.3v25.3h-11.5v-24.4c0-4.9-0.9-6.8-6.5-6.9c-1.8,0-3.7,0.3-5,0.8c-0.2,1.6-0.2,3.6-0.2,5.4V135.3z"/>
			<path id="XMLID_19_" class="st0" d="M383.3,85.6c0-4.1,1.5-5.7,6.2-5.7c4.6,0,6.2,1.6,6.2,5.7c0,4.1-1.5,5.7-6.2,5.7
				C384.9,91.4,383.3,89.8,383.3,85.6 M383.8,94.7h11.6v40.6h-11.6V94.7z"/>
			<path id="XMLID_16_" class="st0" d="M427.8,82.4h11.5V124c0,2.8-0.1,5.2-0.3,7.9c-4.5,2.8-10.9,3.9-16.5,3.9
				c-13.6,0-19.3-4.8-19.3-20.6c0-15.6,5.7-20.6,18.1-20.6c2,0,4.4,0.2,6.5,0.6V82.4z M423.4,103.9c-8.4,0-8.7,4.9-8.7,11.3
				c0,5.7,0.2,11.4,7.7,11.4c1.8,0,3.8-0.3,5.1-0.8c0.2-1.6,0.2-3.6,0.2-5.4v-16C426.5,104.1,424.8,103.9,423.4,103.9"/>
			<path id="XMLID_13_" class="st0" d="M446.6,122.7c0-7.2,3.2-11.6,11.4-13c4-0.6,7.6-0.8,11.4-0.9c0-3.6-1.9-5-6.1-5
				c-4.9,0-10.4,0.6-14.4,1.1l-0.9-8.7c4.1-0.7,10.1-1.6,16-1.6c9.1,0,16.7,2.6,16.7,13.2V124c0,2.8-0.1,5.2-0.3,7.9
				c-4.8,2.9-10.9,3.9-17.9,3.9C451.1,135.8,446.6,131.5,446.6,122.7 M469.4,116.4c-2.4,0.2-5.2,0.3-7.5,0.8c-2.9,0.7-4,1.7-4,5.4
				c0,3.4,2,4.3,5.6,4.3c1.8,0,3.9-0.1,5.7-0.8c0.2-1.6,0.2-3.6,0.2-5.4V116.4z"/>
			<path id="XMLID_12_" class="st0" d="M367.4,82.4v12.2h10v9.5h-10v18.6c0,2.7,1.2,4.2,4.1,4.2c1.2,0,2.4,0,3.7-0.2l0.9,8.2
				c-2.4,0.4-5.3,0.8-7.7,0.8c-8.7,0-12.5-3.9-12.5-11.7V82.4H367.4z"/>
			<path id="XMLID_11_" class="st0" d="M231.3,82.4v12.2h10v9.5h-10v18.6c0,2.7,1.2,4.2,4.1,4.2c1.2,0,2.4,0,3.7-0.2l0.9,8.2
				c-2.4,0.4-5.3,0.8-7.7,0.8c-8.8,0-12.5-3.9-12.5-11.7V82.4H231.3z"/>
		</g>
		<g id="XMLID_7_">
			<defs>
				<path id="XMLID_8_" d="M14.2,20.1c-2.1,0-3.8,1.7-3.8,3.8v62.2c0,30.1,19.4,49.8,49.5,49.8h25.6c2.1,0,3.8-1.7,3.8-3.8v-30.6
					c0-2.1-1.7-3.8-3.8-3.8H69.1c-2.1,0-11.9-0.3-11.9-11.9V23.9c0-2.1-1.7-3.8-3.8-3.8H14.2z"/>
			</defs>
			<use xlink:href="#XMLID_8_"  style="overflow:visible;fill:#FFFFFF;"/>
			<clipPath id="XMLID_135_">
				<use xlink:href="#XMLID_8_"  style="overflow:visible;"/>
			</clipPath>

				<rect id="XMLID_9_" x="0.2" y="13.7" transform="matrix(-0.9823 -0.1871 0.1871 -0.9823 84.1887 163.8302)" class="st3" width="99.2" height="128.5"/>
		</g>
		<g id="XMLID_4_">
			<defs>
				<path id="XMLID_5_" d="M66.7,36.8c-2.1,0-3.8,1.7-3.8,3.8v35.1c0,2.1,1.7,3.8,3.8,3.8h18.7c2.1,0,9.5,0.3,9.5,11.9V132
					c0,2.1,1.7,3.8,3.8,3.8h39.2c2.1,0,3.8-1.7,3.8-3.8V86.5c0-30.1-19.4-49.8-49.5-49.8H66.7z"/>
			</defs>
			<use xlink:href="#XMLID_5_"  style="overflow:visible;fill:#FFFFFF;"/>
			<clipPath id="XMLID_136_">
				<use xlink:href="#XMLID_5_"  style="overflow:visible;"/>
			</clipPath>

				<rect id="XMLID_6_" x="46.4" y="25.2" transform="matrix(0.9173 0.3981 -0.3981 0.9173 42.8135 -33.595)" class="st4" width="111.8" height="122.3"/>
		</g>
	</g>
	<g id="XMLID_43_">
		<g id="XMLID_50_">
			<path id="XMLID_79_" class="st0" d="M211.3,34.9c0,4.7-2.6,9.5-7.7,11.4c4.8,1.6,8.5,5.3,8.5,12.3c0,12.5-10,14.9-21,14.9
				c-6.9,0-13-0.5-18.1-1.5V21.9c4.1-0.8,10.8-1.6,17.3-1.6C200.1,20.3,211.3,22.2,211.3,34.9 M185,50.8v12.5
				c1.7,0.2,3.7,0.4,5.9,0.4c5.3,0,9.1-0.9,9.1-6.3c0-5.7-4.1-6.6-9.4-6.6H185z M190.6,41.8c5.1,0,8.9-0.9,8.9-6.1
				c0-5.2-3.6-5.8-9.3-5.8c-1.7,0-3.6,0.1-5.2,0.3v11.5H190.6z"/>
			<path id="XMLID_76_" class="st0" d="M218.8,60.5c0-7.2,3.2-11.5,11.4-12.9c3.9-0.7,7.5-0.8,11.3-0.9c0-3.6-1.9-4.9-6.1-4.9
				c-4.8,0-10.3,0.6-14.3,1.1l-0.9-8.6c4.1-0.7,10-1.6,15.9-1.6c9,0,16.6,2.6,16.6,13.1v16.1c0,2.8-0.1,5.1-0.3,7.8
				c-4.8,2.9-10.8,3.9-17.8,3.9C223.3,73.5,218.8,69.2,218.8,60.5 M241.5,54.2c-2.4,0.2-5.2,0.3-7.4,0.8c-2.8,0.7-4,1.7-4,5.4
				c0,3.4,2,4.3,5.5,4.3c1.8,0,3.8-0.1,5.7-0.8c0.2-1.6,0.2-3.6,0.2-5.3V54.2z"/>
			<path id="XMLID_75_" class="st0" d="M272.2,73h-11.4V44.3c0-2.8,0.1-5.1,0.3-7.8c4.8-2.8,11.1-3.9,17.6-3.9
				c14.7,0,16.4,6.3,16.4,15.2V73h-11.4V48.7c0-4.8-0.9-6.8-6.4-6.8c-1.8,0-3.7,0.3-4.9,0.8c-0.2,1.6-0.2,3.6-0.2,5.3V73z"/>
			<path id="XMLID_74_" class="st0" d="M331.1,71.8c-3.6,1-8.1,1.7-13.7,1.7C304,73.5,302,63.2,302,52.7c0-13,3.1-20.1,17.8-20.1
				c4.9,0,8.4,0.7,11.2,1.7l-0.9,8.4c-2.6-0.5-5-1.1-7.6-1.1c-8.1,0-9.1,2.6-9.1,11.1c0,8,0.4,11.5,9.2,11.5c2.6,0,4.8-0.5,7.4-1
				L331.1,71.8z"/>
			<path id="XMLID_71_" class="st0" d="M336.1,53c0-14.8,4.8-20.4,18-20.4c13.2,0,18,5.7,18,20.4c0,14.8-4.8,20.5-18,20.5
				C340.9,73.5,336.1,67.9,336.1,53 M360.6,53c0-8.7-1.3-11.1-6.5-11.1c-5.3,0-6.5,2.3-6.5,11.1c0,8.9,1.2,11.1,6.5,11.1
				C359.4,64.2,360.6,61.8,360.6,53"/>
			<path id="XMLID_68_" class="st0" d="M168.4,135.3l15.3-44.5c2.1-6,5-8.4,9.4-8.4c4.3,0,7.4,2.7,9.3,8.4l15,44.5h-13l-3.6-12
				h-16.4l-3.4,12H168.4z M198,113.8l-5.5-18.5l-5.3,18.5H198z"/>
			<path id="XMLID_67_" class="st0" d="M260,82.4v40.4c0,2.7,1.2,4.2,4.1,4.2c1.2,0,2.2-0.1,3.5-0.5l1.1,8.5
				c-2.4,0.4-5.3,0.8-7.7,0.8c-8.8,0-12.5-3.9-12.5-11.7V82.4H260z"/>
			<path id="XMLID_63_" class="st0" d="M271.5,122.7c0-7.2,3.2-11.6,11.4-13c3.9-0.6,7.6-0.8,11.4-0.9c0-3.6-1.8-5-6.1-5
				c-4.9,0-10.4,0.6-14.4,1.1l-0.9-8.7c4.1-0.7,10.1-1.6,16-1.6c9.1,0,16.7,2.6,16.7,13.2V124c0,2.8-0.1,5.2-0.3,7.9
				c-4.8,2.9-10.9,3.9-17.9,3.9C276,135.8,271.5,131.5,271.5,122.7 M294.3,116.4c-2.5,0.2-5.2,0.3-7.5,0.8c-2.8,0.7-4,1.7-4,5.4
				c0,3.4,2,4.3,5.6,4.3c1.8,0,3.9-0.1,5.7-0.8c0.2-1.6,0.2-3.6,0.2-5.4V116.4z M293.3,90.4h-8.7l5.9-10h11.4L293.3,90.4z"/>
			<path id="XMLID_62_" class="st0" d="M325.7,135.3h-11.4v-28.8c0-2.8,0.1-5.2,0.3-7.9c4.8-2.8,11.2-3.9,17.7-3.9
				c14.8,0,16.5,6.3,16.5,15.3v25.3h-11.5v-24.4c0-4.9-0.9-6.8-6.5-6.9c-1.8,0-3.7,0.3-5,0.8c-0.2,1.6-0.2,3.6-0.2,5.4V135.3z"/>
			<path id="XMLID_59_" class="st0" d="M384.3,85.6c0-4.1,1.5-5.7,6.2-5.7c4.6,0,6.2,1.6,6.2,5.7c0,4.1-1.5,5.7-6.2,5.7
				C385.9,91.4,384.3,89.8,384.3,85.6 M384.8,94.7h11.6v40.6h-11.6V94.7z"/>
			<path id="XMLID_56_" class="st0" d="M428.8,82.4h11.5V124c0,2.8-0.1,5.2-0.3,7.9c-4.5,2.8-10.9,3.9-16.5,3.9
				c-13.6,0-19.3-4.8-19.3-20.6c0-15.6,5.7-20.6,18.1-20.6c2,0,4.4,0.2,6.5,0.6V82.4z M424.4,103.9c-8.4,0-8.7,4.9-8.7,11.3
				c0,5.7,0.2,11.4,7.7,11.4c1.8,0,3.8-0.3,5.1-0.8c0.2-1.6,0.2-3.6,0.2-5.4v-16C427.5,104.1,425.8,103.9,424.4,103.9"/>
			<path id="XMLID_53_" class="st0" d="M447.6,122.7c0-7.2,3.2-11.6,11.4-13c4-0.6,7.6-0.8,11.4-0.9c0-3.6-1.9-5-6.1-5
				c-4.9,0-10.4,0.6-14.4,1.1l-0.9-8.7c4.1-0.7,10.1-1.6,16-1.6c9.1,0,16.7,2.6,16.7,13.2V124c0,2.8-0.1,5.2-0.3,7.9
				c-4.8,2.9-10.9,3.9-17.9,3.9C452.1,135.8,447.6,131.5,447.6,122.7 M470.4,116.4c-2.4,0.2-5.2,0.3-7.5,0.8c-2.9,0.7-4,1.7-4,5.4
				c0,3.4,2,4.3,5.6,4.3c1.8,0,3.9-0.1,5.7-0.8c0.2-1.6,0.2-3.6,0.2-5.4V116.4z"/>
			<path id="XMLID_52_" class="st0" d="M368.4,82.4v12.2h10v9.5h-10v18.6c0,2.7,1.2,4.2,4.1,4.2c1.2,0,2.4,0,3.7-0.2l0.9,8.2
				c-2.4,0.4-5.3,0.8-7.7,0.8c-8.7,0-12.5-3.9-12.5-11.7V82.4H368.4z"/>
			<path id="XMLID_51_" class="st0" d="M232.3,82.4v12.2h10v9.5h-10v18.6c0,2.7,1.2,4.2,4.1,4.2c1.2,0,2.4,0,3.7-0.2l0.9,8.2
				c-2.4,0.4-5.3,0.8-7.7,0.8c-8.8,0-12.5-3.9-12.5-11.7V82.4H232.3z"/>
		</g>
		<g id="XMLID_47_">
			<defs>
				<path id="XMLID_48_" d="M15.2,20.1c-2.1,0-3.8,1.7-3.8,3.8v62.2c0,30.1,19.4,49.8,49.5,49.8h25.6c2.1,0,3.8-1.7,3.8-3.8v-30.6
					c0-2.1-1.7-3.8-3.8-3.8H70.1c-2.1,0-11.9-0.3-11.9-11.9V23.9c0-2.1-1.7-3.8-3.8-3.8H15.2z"/>
			</defs>
			<use xlink:href="#XMLID_48_"  style="overflow:visible;fill:#FFFFFF;"/>
			<clipPath id="XMLID_137_">
				<use xlink:href="#XMLID_48_"  style="overflow:visible;"/>
			</clipPath>

				<rect id="XMLID_49_" x="1.2" y="13.7" transform="matrix(-0.9823 -0.1871 0.1871 -0.9823 86.171 164.0173)" class="st5" width="99.2" height="128.5"/>
		</g>
		<g id="XMLID_44_">
			<defs>
				<path id="XMLID_45_" d="M67.7,36.8c-2.1,0-3.8,1.7-3.8,3.8v35.1c0,2.1,1.7,3.8,3.8,3.8h18.7c2.1,0,9.5,0.3,9.5,11.9V132
					c0,2.1,1.7,3.8,3.8,3.8h39.2c2.1,0,3.8-1.7,3.8-3.8V86.5c0-30.1-19.4-49.8-49.5-49.8H67.7z"/>
			</defs>
			<use xlink:href="#XMLID_45_"  style="overflow:visible;fill:#FFFFFF;"/>
			<clipPath id="XMLID_138_">
				<use xlink:href="#XMLID_45_"  style="overflow:visible;"/>
			</clipPath>

				<rect id="XMLID_46_" x="47.4" y="25.2" transform="matrix(0.9173 0.3981 -0.3981 0.9173 42.8962 -33.9931)" class="st6" width="111.8" height="122.3"/>
		</g>
	</g>
</g>
</svg>
