<svg version="1.1" id="banner-logo-bancatlan" xmlns="http://www.w3.org/2000/svg" xmlns:xlink="http://www.w3.org/1999/xlink" x="0px" y="0px" viewBox="0 0 310 82" style="enable-background:new 0 0 310 82;" xml:space="preserve">
<style type="text/css">
	.st0{fill:#D9272E;}
	.st1{fill:url(#SVGID_1_);}
	.st2{fill:url(#SVGID_2_);}
</style>
<g id="logo-BA">
	<g>
		<path class="st0" d="M132.6,13.5c0,3-1.6,6-4.9,7.3c3,1,5.4,3.4,5.4,7.9c0,8-6.4,9.5-13.4,9.5c-4.4,0-8.3-0.3-11.6-0.9v-32
			c2.6-0.5,6.9-1,11-1C125.4,4.2,132.6,5.5,132.6,13.5 M115.8,23.7v8c1.1,0.2,2.3,0.2,3.7,0.2c3.4,0,5.8-0.6,5.8-4
			c0-3.6-2.6-4.2-6-4.2H115.8z M119.4,18c3.3,0,5.7-0.6,5.7-3.9c0-3.3-2.3-3.7-5.9-3.7c-1.1,0-2.3,0.1-3.3,0.2V18H119.4z"></path>
		<path class="st0" d="M137.4,29.9c0-4.6,2-7.4,7.2-8.2c2.5-0.4,4.8-0.5,7.2-0.6c0-2.3-1.2-3.2-3.9-3.2c-3.1,0-6.6,0.4-9.1,0.7
			l-0.6-5.5c2.6-0.5,6.4-1,10.1-1c5.8,0,10.6,1.6,10.6,8.4v10.2c0,1.8-0.1,3.3-0.2,5c-3.1,1.8-6.9,2.5-11.3,2.5
			C140.2,38.2,137.4,35.4,137.4,29.9 M151.8,25.8c-1.6,0.1-3.3,0.2-4.7,0.5c-1.8,0.4-2.6,1.1-2.6,3.4c0,2.1,1.3,2.8,3.5,2.8
			c1.2,0,2.5-0.1,3.6-0.5c0.1-1,0.2-2.3,0.2-3.4V25.8z"></path>
		<path class="st0" d="M171.4,37.8h-7.2V19.6c0-1.8,0.1-3.3,0.2-5c3.1-1.8,7.1-2.5,11.3-2.5c9.4,0,10.5,4,10.5,9.7v16h-7.3V22.3
			c0-3.1-0.6-4.3-4.1-4.3c-1.1,0-2.4,0.2-3.2,0.5c-0.1,1-0.2,2.3-0.2,3.4V37.8z"></path>
		<path class="st0" d="M209,37.1c-2.3,0.6-5.2,1.1-8.8,1.1c-8.6,0-9.8-6.6-9.8-13.3c0-8.3,2-12.8,11.4-12.8c3.1,0,5.3,0.5,7.2,1.1
			l-0.6,5.3c-1.7-0.3-3.2-0.7-4.8-0.7c-5.1,0-5.8,1.7-5.8,7.1c0,5.1,0.3,7.4,5.9,7.4c1.7,0,3.1-0.3,4.8-0.7L209,37.1z"></path>
		<path class="st0" d="M212.2,25.1c0-9.4,3-13,11.5-13c8.4,0,11.5,3.6,11.5,13c0,9.4-3,13.1-11.5,13.1
			C215.2,38.2,212.2,34.6,212.2,25.1 M227.8,25.1c0-5.5-0.8-7.1-4.2-7.1c-3.4,0-4.2,1.5-4.2,7.1c0,5.7,0.8,7.1,4.2,7.1
			C227,32.2,227.8,30.7,227.8,25.1"></path>
		<g>
			<g>
				<path class="st0" d="M105.2,77.6l9.7-28.4c1.3-3.8,3.2-5.4,6-5.4c2.7,0,4.7,1.7,5.9,5.4l9.6,28.4h-8.3l-2.3-7.6h-10.4l-2.2,7.6
					H105.2z M124.1,63.9l-3.5-11.8l-3.4,11.8H124.1z"></path>
				<path class="st0" d="M163.6,43.9v25.8c0,1.8,0.7,2.7,2.6,2.7c0.8,0,1.4-0.1,2.2-0.3l0.7,5.4c-1.5,0.3-3.4,0.5-4.9,0.5
					c-5.6,0-8-2.5-8-7.4V43.9H163.6z"></path>
				<path class="st0" d="M171,69.6c0-4.6,2-7.4,7.3-8.3c2.5-0.4,4.8-0.5,7.3-0.6c0-2.3-1.2-3.2-3.9-3.2c-3.1,0-6.6,0.4-9.2,0.7
					l-0.6-5.5c2.6-0.5,6.4-1,10.2-1c5.8,0,10.6,1.6,10.6,8.4v10.3c0,1.8-0.1,3.3-0.2,5c-3.1,1.8-7,2.5-11.4,2.5
					C173.8,77.9,171,75.2,171,69.6z M185.5,65.5c-1.6,0.1-3.3,0.2-4.8,0.5c-1.8,0.4-2.6,1.1-2.6,3.4c0,2.2,1.3,2.8,3.5,2.8
					c1.2,0,2.5-0.1,3.6-0.5c0.1-1,0.2-2.3,0.2-3.4V65.5z M184.9,48.9h-5.6l3.8-6.4h7.3L184.9,48.9z"></path>
				<path class="st0" d="M205.6,77.6h-7.3V59.2c0-1.8,0.1-3.3,0.2-5c3.1-1.8,7.1-2.5,11.3-2.5c9.4,0,10.5,4,10.5,9.8v16.1H213V62
					c0-3.1-0.6-4.4-4.1-4.4c-1.1,0-2.4,0.2-3.2,0.5c-0.1,1-0.2,2.3-0.2,3.4V77.6z"></path>
				<path class="st0" d="M243,45.9c0-2.6,1-3.7,4-3.7c3,0,4,1,4,3.7c0,2.6-1,3.7-4,3.7C243.9,49.6,243,48.5,243,45.9z M243.2,51.7
					h7.4v25.9h-7.4V51.7z"></path>
				<path class="st0" d="M271.3,43.9h7.4v26.5c0,1.8-0.1,3.3-0.2,5c-2.9,1.8-7,2.5-10.5,2.5c-8.7,0-12.3-3.1-12.3-13.1
					c0-10,3.6-13.1,11.6-13.1c1.3,0,2.8,0.1,4.1,0.4V43.9z M268.5,57.6c-5.3,0-5.5,3.1-5.5,7.2c0,3.6,0.2,7.3,4.9,7.3
					c1.2,0,2.5-0.2,3.2-0.5c0.1-1,0.2-2.3,0.2-3.4V57.9C270.5,57.7,269.4,57.6,268.5,57.6z"></path>
				<path class="st0" d="M283.3,69.6c0-4.6,2-7.4,7.3-8.3c2.5-0.4,4.8-0.5,7.3-0.6c0-2.3-1.2-3.2-3.9-3.2c-3.1,0-6.6,0.4-9.2,0.7
					l-0.6-5.5c2.6-0.5,6.4-1,10.2-1c5.8,0,10.6,1.6,10.6,8.4v10.3c0,1.8-0.1,3.3-0.2,5c-3.1,1.8-7,2.5-11.4,2.5
					C286.2,77.9,283.3,75.2,283.3,69.6z M297.8,65.5c-1.6,0.1-3.3,0.2-4.8,0.5c-1.8,0.4-2.6,1.1-2.6,3.4c0,2.2,1.3,2.8,3.6,2.8
					c1.2,0,2.5-0.1,3.6-0.5c0.1-1,0.2-2.3,0.2-3.4V65.5z"></path>
			</g>
			<path class="st0" d="M232.8,43.9v7.8h6.3v6.1h-6.3v11.9c0,1.8,0.7,2.7,2.6,2.7c0.8,0,1.5,0,2.4-0.1l0.6,5.2
				c-1.5,0.3-3.4,0.5-4.9,0.5c-5.6,0-8-2.5-8-7.4V43.9H232.8z"></path>
			<path class="st0" d="M146,43.9v7.8h6.4v6.1H146v11.9c0,1.8,0.7,2.7,2.6,2.7c0.8,0,1.5,0,2.4-0.1l0.6,5.2
				c-1.5,0.3-3.4,0.5-4.9,0.5c-5.6,0-8-2.5-8-7.4V43.9H146z"></path>
		</g>
	</g>
	<g>
		<linearGradient id="SVGID_1_" gradientUnits="userSpaceOnUse" x1="19.7206" y1="41" x2="56.0622" y2="41">
			<stop offset="0" style="stop-color:#D20622"></stop>
			<stop offset="0.6633" style="stop-color:#BC0E1F"></stop>
			<stop offset="1" style="stop-color:#AF131E"></stop>
		</linearGradient>
		<path class="st1" d="M7.4,4.1C6.1,4.1,5,5.2,5,6.5v39.7c0,19.2,12.4,31.7,31.6,31.7h16.4c1.3,0,2.4-1.1,2.4-2.4V56
			c0-1.3-1.1-2.4-2.4-2.4H42.5c-1.3,0-7.6-0.2-7.6-7.6V6.5c0-1.3-1.1-2.4-2.4-2.4H7.4z"></path>
		<linearGradient id="SVGID_2_" gradientUnits="userSpaceOnUse" x1="72.2169" y1="46.3318" x2="41.9491" y2="46.3318">
			<stop offset="0" style="stop-color:#D20622"></stop>
			<stop offset="0.6633" style="stop-color:#BC0E1F"></stop>
			<stop offset="1" style="stop-color:#AF131E"></stop>
		</linearGradient>
		<path class="st2" d="M40.9,14.7c-1.3,0-2.4,1.1-2.4,2.4v22.4c0,1.3,1.1,2.4,2.4,2.4h11.9c1.3,0,6,0.2,6,7.6v25.9
			c0,1.3,1.1,2.4,2.4,2.4h25c1.3,0,2.4-1.1,2.4-2.4v-29c0-19.2-12.4-31.7-31.6-31.7H40.9z"></path>
	</g>
</g>
</svg>